<svg width="24" height="25" viewBox="0 0 24 25" fill="none" xmlns="http://www.w3.org/2000/svg">
<path d="M13.3753 19.7027C13.2346 19.9452 13.0327 20.1465 12.7898 20.2864C12.5468 20.4264 12.2714 20.5 11.991 20.5C11.7107 20.5 11.4353 20.4264 11.1923 20.2864C10.9494 20.1465 10.7475 19.9452 10.6068 19.7027M16.7898 9.30085C16.7898 8.02759 16.2861 6.80647 15.3858 5.90614C14.4854 5.0058 13.2643 4.5 11.991 4.5C10.7178 4.5 9.49666 5.0058 8.59632 5.90614C7.69599 6.80647 7.19019 8.02759 7.19019 9.30085C7.19019 13.5 3.45013 14.2138 4.78976 16C6.12939 17.7862 17.7898 18 19.2898 16C20.5948 14.26 16.7898 13.5 16.7898 9.30085Z" stroke="#131214" stroke-width="1.5" stroke-linecap="round" stroke-linejoin="round"/>
</svg>
